<svg width="139" height="32" viewBox="0 0 139 32" fill="none" xmlns="http://www.w3.org/2000/svg">
<g id="Group">
<path id="Vector" d="M41.6032 22.8681C42.9013 22.1203 43.733 20.7169 43.733 19.017C43.733 15.226 41.0165 13.9688 36.194 13.9688H27.8125V26.8139H31.9173V24.1275H36.194C36.8344 24.1275 37.4383 24.0953 38.0035 24.033C38.76 24.7765 39.4219 25.9714 39.6884 26.8139H43.9565C43.5202 25.4363 42.6198 23.7987 41.6032 22.8681ZM36.3874 21.1704H31.9173V16.9302H36.3874C38.558 16.9302 39.7851 17.3192 39.7851 19.0191C39.7851 20.7191 38.558 21.1704 36.3874 21.1704Z" fill="#DA0E29"/>
<path id="Vector_2" d="M24.4993 13.9688H20.3945V26.8139H24.4993V13.9688Z" fill="#DA0E29"/>
<path id="Vector_3" d="M57.6243 13.9688H53.5195V26.8139H57.6243V13.9688Z" fill="#DA0E29"/>
<path id="Vector_4" d="M103.699 13.9688H99.5938V26.8139H103.699V13.9688Z" fill="#DA0E29"/>
<path id="Vector_5" d="M88.8935 13.9688H80.7656V26.8139H88.8935C93.658 26.8139 97.1825 24.6712 97.1825 20.3924C97.1825 16.1135 93.658 13.9709 88.8935 13.9709V13.9688ZM88.3928 23.7493H84.8704V17.0334H88.3928C91.4595 17.0334 93.0756 18.1251 93.0756 20.3902C93.0756 22.6554 91.4595 23.7471 88.3928 23.7471V23.7493Z" fill="#DA0E29"/>
<path id="Vector_6" d="M73.505 19.8315C71.0507 17.0871 68.0936 15.1121 64.4229 13.9688H60.9414V26.8139H64.8871V18.1315C68.6373 19.3544 72.1102 23.1669 73.8252 26.8139H77.4507V13.9688H73.505V19.8315Z" fill="#DA0E29"/>
<path id="Vector_7" d="M6.5139 13.9688C3.7996 17.0334 0 22.189 0 26.8139H4.09617C4.09617 26.1219 4.18643 25.417 4.34977 24.7099H13.6682C13.8294 25.417 13.9218 26.1219 13.9218 26.8139H18.018C18.018 22.189 14.2184 17.0334 11.5041 13.9688H6.51605H6.5139ZM5.28462 22.0107C6.2775 19.825 7.73244 17.7963 9.00685 16.3285C10.2834 17.7941 11.7362 19.825 12.7291 22.0107H5.28462Z" fill="#DA0E29"/>
<path id="Vector_8" d="M117.576 13.9688H112.588C109.874 17.0334 106.074 22.189 106.074 26.8139H110.17C110.17 26.1219 110.261 25.417 110.424 24.7099H119.742C119.904 25.417 119.996 26.1219 119.996 26.8139H124.092C124.092 22.189 120.293 17.0334 117.578 13.9688H117.576ZM111.359 22.0107C112.352 19.825 113.807 17.7963 115.081 16.3285C116.358 17.7941 117.81 19.825 118.803 22.0107H111.357H111.359Z" fill="#DA0E29"/>
<path id="Vector_9" d="M138.515 22.0938C138.861 19.5836 138.236 17.4152 137.737 16.0032C137.387 15.0104 137.099 14.2044 136.843 13.4909C135.687 10.2544 135.481 9.67201 134.679 6.42902L134.415 5.35448L133.364 5.01062C130.19 3.97261 129.624 3.72117 126.482 2.32855C125.79 2.02123 125.008 1.67523 124.043 1.25186C122.917 0.757567 121.181 0.0891991 119.107 0.0118317C115.909 -0.110667 112.838 1.18739 109.982 3.86945L110.035 3.85656C109.309 4.49699 108.565 5.24058 107.805 6.10666C107.805 6.10666 107.826 6.16039 107.985 6.02929C108.985 5.22123 112.247 2.17382 121.127 6.16469C125.5 8.13111 129.682 9.87832 129.682 9.87832H129.68C129.68 9.87832 131.054 14.198 132.629 18.7283C135.827 27.9221 132.504 30.9051 131.61 31.8292C131.466 31.9774 131.518 32.0032 131.518 32.0032C132.797 31.0641 133.843 30.14 134.701 29.2331C136.88 27.0453 138.163 24.6469 138.513 22.0938H138.515Z" fill="url(#paint0_linear_14307_47029)"/>
<path id="Vector_10" d="M134.415 5.35448L133.364 5.01062C130.19 3.97261 129.624 3.72117 126.482 2.32855C125.79 2.02123 125.008 1.67523 124.043 1.25186C122.917 0.757567 121.181 0.0891991 119.107 0.0118317C115.909 -0.110667 112.838 1.18739 109.982 3.86945L110.035 3.85656C109.309 4.49699 108.565 5.24058 107.805 6.10666C107.805 6.10666 107.826 6.16039 107.985 6.02929C108.985 5.22123 112.247 2.17382 121.127 6.16469C125.5 8.13111 129.682 9.87832 129.682 9.87832H129.68L134.417 5.35448H134.415Z" fill="#FDD493"/>
</g>
<defs>
<linearGradient id="paint0_linear_14307_47029" x1="150.55" y1="45.7746" x2="116.878" y2="-0.0290106" gradientUnits="userSpaceOnUse">
<stop offset="0.18" stop-color="#FDD493"/>
<stop offset="0.31" stop-color="#EBC385"/>
<stop offset="0.58" stop-color="#BE9760"/>
<stop offset="0.75" stop-color="#9E7947"/>
</linearGradient>
</defs>
</svg>
