<svg width="139" height="15" viewBox="0 0 139 15" fill="none" xmlns="http://www.w3.org/2000/svg">
<g id="SA SVG 1" clip-path="url(#clip0_14307_47041)">
<g id="Layer 1">
<g id="Group">
<g id="Group_2">
<path id="Vector" d="M3.48802 5.76562H2.99127L0.585938 10.997H1.17776C1.17776 10.997 1.86466 9.50435 1.92171 9.38075H4.55521C4.61225 9.50435 5.29202 10.997 5.29202 10.997H5.89573L3.48802 5.76562ZM2.1475 8.87687C2.26872 8.61304 3.07208 6.84945 3.23608 6.48818C3.40246 6.84945 4.21057 8.61304 4.33179 8.87687H2.1475Z" fill="#1D1D1B"/>
<path id="Vector_2" d="M8.99219 9.27936C8.99219 9.7975 9.1443 10.1802 9.44854 10.4844C9.85022 10.8908 10.568 11.0952 11.4688 11.0952C11.9727 11.0952 13.7006 10.9859 13.7006 9.55031C13.7006 8.28823 12.5503 8.17176 11.533 8.06956C10.4848 7.9626 9.70998 7.84852 9.70998 7.13547C9.70998 6.78133 9.893 6.52701 10.2662 6.3535C10.6512 6.17524 11.0671 6.1491 11.4973 6.1491C11.8301 6.1491 12.4386 6.20139 12.7808 6.54365C12.9401 6.70289 13.0209 6.95484 13.0209 7.20678L13.5485 7.21391C13.5485 6.83124 13.4273 6.44382 13.1849 6.20139C12.7428 5.7593 12.0012 5.6666 11.4546 5.6666C10.7059 5.6666 9.96668 5.82823 9.51271 6.27982C9.27503 6.5175 9.15619 6.8051 9.15619 7.13547C9.15619 8.36904 10.4135 8.47124 11.3999 8.55918C11.8681 8.60197 12.3078 8.63999 12.6358 8.78498C12.9829 8.93472 13.1445 9.18666 13.1445 9.5717C13.1445 9.81652 13.0637 10.0233 12.902 10.1849C12.5194 10.5676 11.7255 10.6104 11.4355 10.6104C10.7225 10.6104 10.1497 10.4559 9.84546 10.1516C9.6268 9.93298 9.51509 9.66202 9.51271 9.27698H8.99219V9.27936ZM14.3471 5.76405V6.27507H16.3746V10.9954H16.9141V6.27507H18.9415V5.76405H14.3495H14.3471ZM21.3136 5.76405L18.9082 10.9978H19.5001C19.5001 10.9978 20.187 9.50515 20.244 9.38156H22.8799C22.9369 9.50515 23.6143 10.9978 23.6143 10.9978H24.218L21.8127 5.76405H21.316H21.3136ZM21.5584 6.48898C21.7224 6.85026 22.5329 8.61623 22.6541 8.87768H20.4698C20.5886 8.61623 21.3944 6.85026 21.5584 6.48898ZM25.5491 5.76405V10.9978H26.0933V8.72318H28.2135C29.1452 8.72318 29.3662 8.91095 29.39 9.72382C29.409 10.5747 29.447 10.8528 29.5611 10.9645L29.5944 10.9978H30.1577L30.0697 10.829C29.9842 10.6674 29.9533 10.3418 29.9461 9.49565C29.939 8.9775 29.6538 8.59959 29.2046 8.43559C29.7917 8.17176 30.0317 7.64173 30.0317 7.2044C30.0317 6.23466 29.4399 5.76405 28.223 5.76405H25.5514H25.5491ZM28.2467 6.27507C29.0739 6.27507 29.4755 6.57217 29.4755 7.18539C29.4755 7.87466 29.0477 8.20742 28.1707 8.20742H26.0957V6.27269H28.2491L28.2467 6.27507ZM36.2399 5.76405L33.8346 10.9978H34.4359C34.4359 10.9978 35.1157 9.50515 35.1704 9.38156H37.8063C37.8633 9.50515 38.5502 10.9978 38.5502 10.9978H39.1444L36.7462 5.76405H36.2399ZM36.4919 6.48898C36.6559 6.85026 37.4592 8.61623 37.5805 8.87768H35.3986C35.5198 8.61623 36.3279 6.85026 36.4943 6.48898H36.4919ZM54.5723 5.76405L52.167 10.9978H52.7659C52.7659 10.9978 53.4457 9.50515 53.5027 9.38156H56.1386C56.1956 9.50515 56.8825 10.9978 56.8825 10.9978H57.4767L55.0785 5.76405H54.5723ZM54.8242 6.48898C54.9882 6.85026 55.794 8.61623 55.9128 8.87768H53.7309C53.8497 8.61623 54.6602 6.85026 54.8266 6.48898H54.8242ZM40.473 5.76405V10.9978H44.245V10.4868H41.0197V5.76405H40.4754H40.473ZM45.4097 5.76405V10.9978H49.1745V10.4868H45.9563V5.76405H45.4121H45.4097ZM50.3035 5.76405V10.9978H50.8431V5.76405H50.3035ZM63.105 5.76405V10.1303C62.7675 9.72144 59.3164 5.76405 59.3164 5.76405H58.7721V10.9978H59.3069V6.63159C59.6444 7.03802 63.0955 10.9978 63.0955 10.9978H63.6398V5.76405H63.105ZM71.9896 5.76405V10.9978H76.2108V10.4868H72.5315V8.54255H76.023V8.03866H72.5315V6.27507H76.1704V5.76405H71.9896ZM65.161 8.38805C65.161 10.0399 66.309 11.1071 67.9965 11.1071C69.5676 11.1071 70.5183 10.0471 70.6467 8.99652L70.6633 8.86817H70.0952L70.0786 8.96324C69.898 9.97101 69.1017 10.5961 67.9989 10.5961C66.3731 10.5961 65.7219 9.45286 65.7219 8.3833C65.7219 7.07605 66.6655 6.16336 68.0179 6.16336C69.0471 6.16336 69.7886 6.65536 70.0002 7.48011L70.0216 7.56805H70.5872L70.5563 7.42782C70.2996 6.30121 69.3727 5.65234 68.0179 5.65234C66.0951 5.65234 65.161 7.0713 65.161 8.38805Z" fill="#1D1D1B"/>
<g id="Group_3">
<path id="Vector_3" d="M85.594 5.74219H86.3594V10.9997H85.8246V6.45761H85.8056L83.4906 10.9997H82.9867L80.6788 6.45285H80.6645V10.9997H80.125V5.74219H80.9141L83.2529 10.3128L85.5893 5.74219H85.594Z" fill="#1D1D1B"/>
<path id="Vector_4" d="M88.2891 5.76953V11.0056H92.5174V10.4923H88.8357V8.54802H92.3296V8.04652H88.8357V6.28055H92.477V5.76953H88.2914H88.2891Z" fill="#1D1D1B"/>
<path id="Vector_5" d="M99.6346 5.74609H100.402V11.0036H99.8652V6.46389H99.8486L97.5312 11.0036H97.0297L94.7194 6.45438H94.7051V11.0036H94.168V5.74609H94.9547L97.2959 10.3167L99.6323 5.74609H99.6346Z" fill="#1D1D1B"/>
<path id="Vector_6" d="M102.889 6.25219H105.22C105.815 6.25219 106.238 6.4566 106.238 7.10071C106.238 7.80425 105.769 8.03717 105.037 8.03717H102.886V6.25457L102.889 6.25219ZM102.352 10.9963H105.256C106.062 10.9963 106.984 10.6018 106.984 9.50367C106.984 8.83103 106.568 8.32952 105.881 8.22257V8.2083C106.504 8.05857 106.78 7.58796 106.78 7.07932C106.78 6.33062 106.352 5.75781 105.327 5.75781H102.352V10.9963ZM102.889 8.53155H105.301C105.931 8.53155 106.402 8.74546 106.402 9.50604C106.402 10.2262 105.869 10.5043 105.168 10.5043H102.886V8.53155H102.889Z" fill="#1D1D1B"/>
<path id="Vector_7" d="M108.695 5.76562V10.9994H112.921V10.486H109.237V8.54174H112.734V8.04023H109.237V6.27664H112.879V5.76562H108.695Z" fill="#1D1D1B"/>
<path id="Vector_8" d="M119.085 10.8315C118.997 10.6675 118.968 10.3418 118.961 9.49569C118.954 8.97992 118.669 8.60201 118.22 8.43801C118.809 8.17656 119.047 7.64415 119.047 7.20682C119.047 6.23708 118.457 5.76172 117.24 5.76172H114.566V11.0002H115.111V8.7256H117.228C118.163 8.7256 118.384 8.91099 118.407 9.72386C118.426 10.5748 118.462 10.8528 118.578 10.9669L118.612 11.0002H119.173L119.085 10.8315ZM117.188 8.20983H115.111V6.27511H117.264C118.091 6.27511 118.493 6.57459 118.493 7.18543C118.493 7.8747 118.067 8.20746 117.188 8.20746V8.20983Z" fill="#1D1D1B"/>
</g>
</g>
<g id="Group_4">
<g id="Group_5">
<path id="Vector_9" d="M134.266 8.99887C134.086 8.16223 133.96 7.29469 133.9 6.4129C133.839 5.52872 133.841 4.66119 133.905 3.80078L135.586 6.29406L134.266 8.99649V8.99887Z" fill="#DADADA"/>
<path id="Vector_10" d="M133.906 3.80078C134.721 4.06223 135.537 4.38785 136.328 4.77527C137.124 5.16269 137.876 5.60003 138.586 6.0849L135.587 6.29406L133.906 3.80078Z" fill="#9D9D9C"/>
<path id="Vector_11" d="M138.584 6.08594C137.95 6.66113 137.26 7.20304 136.528 7.69742C135.794 8.19179 135.04 8.62437 134.266 8.99753L135.585 6.2951L138.584 6.08594Z" fill="#575756"/>
</g>
<g id="Group_6">
<path id="Vector_12" d="M131.773 11.2068C132.515 10.7766 133.299 10.3892 134.119 10.0588C134.942 9.72604 135.769 9.46222 136.603 9.25781L134.752 11.6275L131.773 11.2092V11.2068Z" fill="#DADADA"/>
<path id="Vector_13" d="M136.602 9.25781C136.604 10.1158 136.547 10.9881 136.423 11.8628C136.3 12.7398 136.117 13.5907 135.877 14.4155L134.75 11.6275L136.602 9.25781Z" fill="#9D9D9C"/>
<path id="Vector_14" d="M135.878 14.4157C135.134 13.9903 134.407 13.503 133.711 12.9587C133.012 12.4145 132.368 11.8298 131.773 11.207L134.752 11.6254L135.878 14.4133V14.4157Z" fill="#575756"/>
</g>
<g id="Group_7">
<path id="Vector_15" d="M128.898 9.51953C129.538 10.09 130.149 10.7198 130.714 11.3948C131.285 12.0746 131.791 12.7781 132.245 13.5102L129.419 12.481L128.898 9.51953Z" fill="#9D9D9C"/>
<path id="Vector_16" d="M132.249 13.5096C131.433 13.7782 130.585 13.9921 129.715 14.1442C128.843 14.2987 127.978 14.3867 127.117 14.4128L129.42 12.4805L132.246 13.5096H132.249Z" fill="#575756"/>
<path id="Vector_17" d="M127.117 14.4134C127.293 13.5744 127.531 12.7306 127.833 11.9035C128.134 11.0716 128.491 10.2777 128.9 9.51953L129.42 12.481L127.117 14.4134Z" fill="#DADADA"/>
</g>
<g id="Group_8">
<path id="Vector_18" d="M129.623 6.26562C129.276 7.04997 128.869 7.82481 128.401 8.57351C127.93 9.32458 127.419 10.0257 126.863 10.6841L126.968 7.67983L129.623 6.268V6.26562Z" fill="#575756"/>
<path id="Vector_19" d="M126.86 10.6812C126.354 9.98951 125.888 9.24794 125.472 8.46835C125.056 7.68638 124.704 6.89015 124.414 6.08203L126.964 7.67687L126.86 10.6812Z" fill="#9D9D9C"/>
<path id="Vector_20" d="M124.414 6.08286C125.267 5.99016 126.142 5.95689 127.024 5.98779C127.908 6.01869 128.773 6.11138 129.619 6.26587L126.964 7.6777L124.414 6.08286Z" fill="#DADADA"/>
</g>
<g id="Group_9">
<path id="Vector_21" d="M132.936 5.94231C132.083 5.85437 131.22 5.707 130.364 5.49309C129.504 5.27918 128.679 5.00822 127.883 4.6826L130.773 3.85547L132.936 5.94469V5.94231Z" fill="#575756"/>
<path id="Vector_22" d="M127.883 4.68182C128.384 3.9878 128.945 3.31278 129.558 2.67817C130.174 2.04119 130.821 1.46125 131.503 0.933594L130.775 3.85232L127.885 4.67945L127.883 4.68182Z" fill="#DADADA"/>
<path id="Vector_23" d="M131.503 0.9375C131.855 1.71947 132.157 2.54185 132.399 3.39037C132.644 4.24127 132.822 5.09216 132.936 5.94544L130.773 3.85622L131.501 0.9375L131.503 0.9375Z" fill="#9D9D9C"/>
</g>
</g>
</g>
</g>
</g>
<defs>
<clipPath id="clip0_14307_47041">
<rect width="138" height="13.4789" fill="white" transform="translate(0.585938 0.9375)"/>
</clipPath>
</defs>
</svg>
